<svg xmlns="http://www.w3.org/2000/svg" version="1.1" xmlns:xlink="http://www.w3.org/1999/xlink" xmlns:svgjs="http://svgjs.dev/svgjs" width="100%" height="100%" viewBox="0 0 1000 600">
  <g>
    <rect width="333.3333333333333" height="333.3333333333333" rx="13.333333333333334" ry="13.333333333333334" y="214.63071778850133" fill="#0ea5e9" transform="matrix(0.6496595288361497,0,0,0.6496595288361499,0,52.28652672452978)" x="192.4084777832031"/><path d="M208.06454539558956 449.9665439842886L243.41423017756395 311.48973990319917Q244.61737990272033 307.1354837550143 249.3440395372631 306.93495880082156L249.3440395372631 306.93495880082156L256.018655869678 306.93495880082156Q260.3442655958354 306.93495880082156 260.9458404584135 311.69026485739187L260.9458404584135 311.69026485739187Q264.66987532199266 350.4488738606426 265.07092523037807 367.37890927891397Q265.4719751387636 384.28029827515786 264.46935036779996 399.0045591973093L264.46935036779996 399.0045591973093L317.2360597425138 310.8595186185934Q319.44183423863376 306.93495880082156 323.3663940564056 306.93495880082156L323.3663940564056 306.93495880082156L329.81183901260033 306.93495880082156Q332.44730983913325 306.93495880082156 333.5072274541519 308.9115619207213Q334.5671450691706 310.8595186185934 333.9655702065925 313.3804037570163L333.9655702065925 313.3804037570163L298.7018246907006 451.771268572023Q297.3840892774341 456.2974032523731 292.4569046886986 456.2974032523731L292.4569046886986 456.2974032523731L286.5270953289995 456.2974032523731Q284.0062101905768 456.2974032523731 282.88899973150296 454.4353858205835Q281.8004356944567 452.57336838879394 282.40201055703494 449.9665439842886L282.40201055703494 449.9665439842886L306.0639551517763 357.09484377103Q297.3840892774341 372.10556891345675 285.46717771398085 390.7830360754076Q273.5216197285 409.46050323735835 269.79758486492085 415.41895901908504L269.79758486492085 415.41895901908504Q264.66987532199266 423.869653517207 259.4275800909543 423.46860360882147L259.4275800909543 423.46860360882147L255.3024953189897 423.26807865462877Q249.57321091348334 422.86702874624336 250.1747857760615 415.01790911069963L250.1747857760615 415.01790911069963Q251.66439972149317 392.55911424111457 249.14351458307036 354.9750085409927L249.14351458307036 354.9750085409927L224.39300595128276 451.771268572023Q223.1612098040989 456.2974032523731 218.2340252153634 456.2974032523731L218.2340252153634 456.2974032523731L212.18963016755416 456.2974032523731Q209.78333071724148 456.2974032523731 208.60882741411265 454.4353858205835Q207.4629705330114 452.57336838879394 208.06454539558956 449.9665439842886L208.06454539558956 449.9665439842886ZM400.94090490696215 423.06755370043606L400.94090490696215 423.06755370043606L392.86261389519814 423.06755370043606L385.6150691222325 451.771268572023Q384.4119193970762 456.2974032523731 379.4847348083407 456.2974032523731L379.4847348083407 456.2974032523731L373.4403397605315 456.2974032523731Q371.0053938881913 456.2974032523731 369.85953700709 454.4353858205835Q368.71368012598873 452.57336838879394 369.31525498856683 449.9665439842886L369.31525498856683 449.9665439842886L376.16174985314694 423.06755370043606L333.0488847017115 423.06755370043606Q326.60343974551677 423.06755370043606 325.19976506616763 417.8252584693977Q323.7960903868186 412.5829632383594 327.72065020459047 407.4552536954312L327.72065020459047 407.4552536954312L387.41979370996705 318.7372846761648Q389.5396289400044 316.01587458354925 393.66471371196906 316.01587458354925L393.66471371196906 316.01587458354925L401.34195481534755 316.01587458354925Q404.7508790366238 316.01587458354925 405.295161055147 318.36488118980685Q405.86808949569763 320.74253421809203 403.7482542656603 323.6644692649003L403.7482542656603 323.6644692649003L345.22361406341247 409.05945332897295L379.6852597625334 408.85892837478025L386.81821884738883 380.1552135031933Q388.13595426065535 375.6290788228432 393.06313884939084 375.6290788228432L393.06313884939084 375.6290788228432L399.0215946311174 375.6290788228432Q401.54247976954025 375.6290788228432 402.6310438065865 377.4910962546328Q403.7482542656603 379.3531136864224 403.1466794030821 382.0745237790379L403.1466794030821 382.0745237790379L396.3861238045845 408.85892837478025L403.948779219853 408.85892837478025Q407.27176417504666 408.85892837478025 408.41762105614794 409.86155314574387Q409.5921243592768 410.8641779167075 408.6754388543957 413.3850630551302L408.6754388543957 413.3850630551302L406.67018931246844 419.8305080113249Q405.66756454150493 423.06755370043606 400.94090490696215 423.06755370043606ZM452.9055144649051 378.95206377803686L452.9055144649051 378.95206377803686Q472.127263645379 350.2483489064499 480.0336761249779 336.5553591772896Q487.94008860457666 322.86236944812936 494.18500860657866 309.6563688934371L494.18500860657866 309.6563688934371Q495.5886832859277 306.5339088924361 500.31534292047047 306.93495880082156L500.31534292047047 306.93495880082156L506.76078787666506 307.7370586175925Q508.9952087948126 307.9375835717852 509.94054072172116 309.9141866916849Q510.9145190706572 311.8907898115847 509.1957337490054 315.21377476677833L509.1957337490054 315.21377476677833Q485.533789154264 356.6937938626446 455.8274495117133 396.28314910469373L455.8274495117133 396.28314910469373L441.70476345214 451.771268572023Q440.5016137269837 456.2974032523731 435.5744291382482 456.2974032523731L435.5744291382482 456.2974032523731L429.6159733565215 456.2974032523731Q427.12373464012626 456.2974032523731 426.00652418105255 454.4353858205835Q424.88931372197874 452.57336838879394 425.49088858455696 449.9665439842886L425.49088858455696 449.9665439842886L439.9000388644056 392.9601641495Q439.9000388644056 379.3531136864224 436.7202860193495 354.28749441233185Q433.56917959632096 329.19322871621387 430.2461946411273 316.21639953774195L430.2461946411273 316.21639953774195Q428.9284592278608 312.5783039402454 430.2748410631548 309.97147953573995Q431.64986932047634 307.336008709207 434.7723293214773 307.1354837550143L434.7723293214773 307.1354837550143L440.5016137269837 306.3333839382434Q443.42354877379194 306.1328589840507 444.62669849894826 307.0495444889317Q445.8298482241047 307.9375835717852 446.546008774793 311.2605685269789L446.546008774793 311.2605685269789Q452.9055144649051 349.6467740438717 452.9055144649051 378.95206377803686Z " fill="#ffffff" transform="matrix(0.6496595288361497,0,0,0.6496595288361499,0,52.28652672452978)"/>
    <path d="M609.2788850945316 447.637579460398L644.0555298947221 311.4055689546276Q645.2391758279538 307.1218979581697 649.889213422793 306.92462363596445L649.889213422793 306.92462363596445L656.4556301476263 306.92462363596445Q660.7111190980548 306.92462363596445 661.3029420646707 311.6028432768329L661.3029420646707 311.6028432768329Q664.9666080484833 349.73315155451337 665.3611566928938 366.3887407578461Q665.7557053373044 383.0161479151494 664.769333726278 397.5017195742239L664.769333726278 397.5017195742239L716.6806625122997 310.78556394198233Q718.850680056558 306.92462363596445 722.7116203625759 306.92462363596445L722.7116203625759 306.92462363596445L729.0525807191747 306.92462363596445Q731.6453289538728 306.92462363596445 732.688064656958 308.869184811988Q733.7308003600431 310.78556394198233 733.1389773934271 313.26558399256317L733.1389773934271 313.26558399256317L698.4468787313247 449.41304836024574Q697.1505046139756 453.8658116328795 692.3031926969312 453.8658116328795L692.3031926969312 453.8658116328795L686.4695091688603 453.8658116328795Q683.9894891182795 453.8658116328795 682.8903893231358 452.03397864097315Q681.8194715740213 450.2021456490669 682.4112945406372 447.637579460398L682.4112945406372 447.637579460398L705.689664560862 356.27138623331734Q697.1505046139756 371.0387783526852 685.4267734657752 389.4134723638068Q673.6748602715455 407.78816637492855 670.011194287733 413.65003194902874L670.011194287733 413.65003194902874Q664.9666080484833 421.96373552768046 659.8092936251163 421.5691868832698L659.8092936251163 421.5691868832698L655.751078996893 421.3719125610645Q650.1146697910275 420.977363916654 650.7064927576434 413.2554833046182L650.7064927576434 413.2554833046182Q652.1719591511685 391.16075921762524 649.6919391005875 354.18591482714714L649.6919391005875 354.18591482714714L625.3426513312485 449.41304836024574Q624.1308233519873 453.8658116328795 619.283511434943 453.8658116328795L619.283511434943 453.8658116328795L613.3370997227547 453.8658116328795Q610.9698078562913 453.8658116328795 609.8143439690888 452.03397864097315Q608.6870621279157 450.2021456490669 609.2788850945316 447.637579460398L609.2788850945316 447.637579460398ZM725.9807377019779 424.4437555782613L725.9807377019779 424.4437555782613Q726.8825631749164 397.3044452520187 739.5644838881138 373.01152157473814Q752.2464046013114 348.7467799434869 771.8611086377235 349.14132858789753L771.8611086377235 349.14132858789753Q782.0630093003401 349.73315155451337 787.7276005522351 359.3432292505141L787.7276005522351 359.3432292505141Q791.9830895026635 365.9941921134355 791.1939922138424 381.83250198191774L791.1939922138424 381.83250198191774Q790.4048949250212 411.8463810031518 774.7356773327149 437.4074967517521L774.7356773327149 437.4074967517521Q763.9419537034823 456.14855736125503 745.7081699225073 455.4440062105218L745.7081699225073 455.4440062105218Q739.2826634278206 455.2467318883165 733.7308003600431 449.80759700465626L733.7308003600431 449.80759700465626Q725.388914735362 441.8884420704152 725.9807377019779 424.4437555782613ZM760.5601081799631 432.5601848347077L760.5601081799631 432.5601848347077Q774.3411286883044 410.86000939212533 775.1302259771255 384.0025195261759L775.1302259771255 384.0025195261759Q775.3275002993308 372.1378781478289 773.8902159518351 368.05148147357636Q772.4529316043394 363.9932668453532 767.9156221936177 363.9087207072653Q763.3501307368665 363.7959925231479 759.5737365689366 368.16420965769373Q755.8255244470361 372.53242679223956 752.2464046013114 380.2543074042753L752.2464046013114 380.2543074042753Q743.2281498719265 398.29081686304517 742.4390525831053 422.47101235620835L742.4390525831053 422.47101235620835Q742.0445039386948 440.6766140911541 748.7800129397041 441.29661910379923L748.7800129397041 441.29661910379923Q754.6418785138043 441.49389342600455 760.5601081799631 432.5601848347077ZM822.194242846103 434.73020237896594L822.194242846103 434.73020237896594Q840.7380291334006 404.12450039111593 853.5044959846861 353.7913661827366L853.5044959846861 353.7913661827366Q854.4908675957125 349.53587723230805 859.1409051905516 349.9304258767187L859.1409051905516 349.9304258767187L864.8054964424465 350.4377027052466Q870.3573595102241 351.42407431627305 869.060985392875 355.4822889444962L869.060985392875 355.4822889444962Q853.1099473402755 409.87363778109886 832.1988691865142 442.2829907148258L832.1988691865142 442.2829907148258Q824.4769885744785 454.0630859550847 818.9251255067009 453.8658116328795L818.9251255067009 453.8658116328795L813.2887163008353 453.4712629884689Q807.0323020823246 453.07671434405825 807.6241250489404 443.55118278614555L807.6241250489404 443.55118278614555Q810.0195989614333 405.8154231528756 807.0323020823246 358.2441294553704L807.0323020823246 358.2441294553704Q806.637753437914 350.8322513496571 811.9077960453983 350.8322513496571L811.9077960453983 350.8322513496571L817.5442052512639 350.8322513496571Q822.194242846103 350.8322513496571 822.3915171683082 355.4822889444962L822.3915171683082 355.4822889444962Q825.0688115410944 404.12450039111593 822.194242846103 434.73020237896594ZM900.2585103473409 319.9165468554845L900.2585103473409 319.9165468554845L902.1467074313058 319.9165468554845Q905.5285529548252 319.9165468554845 908.4031216498165 322.9883898726813Q911.277690344808 326.0602328898781 911.277690344808 330.00571933398385Q911.277690344808 333.97938782411916 908.2903934656993 336.7975924270519Q905.3312786326198 339.6157970299847 900.8785153599861 339.6157970299847L900.8785153599861 339.6157970299847L899.2721387363144 339.6157970299847Q895.8057470747071 339.6157970299847 893.1002706558916 336.71304628896394Q890.3666121910468 333.78211350191384 890.3666121910468 329.80844501177864Q890.3666121910468 325.86295856767276 893.1848167939796 322.87566168856404Q896.0030213969123 319.9165468554845 900.2585103473409 319.9165468554845ZM903.9503583771827 355.08774030008567L903.9503583771827 355.08774030008567L879.3756142396089 449.41304836024574Q878.1637862603479 453.8658116328795 873.3164743433035 453.8658116328795L873.3164743433035 453.8658116328795L867.3700626311154 453.8658116328795Q861.7336534252497 453.8658116328795 862.9172993584815 449.2157740380404L862.9172993584815 449.2157740380404L887.6893178182606 354.89046597788035Q888.6756894292871 350.8322513496571 893.3257270241263 350.8322513496571L893.3257270241263 350.8322513496571L900.0612360251356 350.8322513496571Q902.7385303979217 350.8322513496571 903.6403558708603 351.7058947765663Q904.5421813437987 352.60772024950484 903.9503583771827 355.08774030008567ZM918.0131993458174 425.8246758336984L918.0131993458174 425.8246758336984Q915.2231767889139 440.6766140911541 923.5650624135949 442.2829907148258L923.5650624135949 442.2829907148258Q930.9769405193081 439.4929681579223 941.9961205167752 427.12104995104744L941.9961205167752 427.12104995104744Q943.8561355547108 425.43012718928776 946.0543351449985 426.7265013066368L946.0543351449985 426.7265013066368L949.9152754510164 429.0937931731004Q952.5925698238025 431.1792645792706 951.690744350864 433.54655644573415L951.690744350864 433.54655644573415Q947.8298040448461 440.8738884133594 937.4306290600241 449.10304585392305Q927.0314540752022 457.3322032944868 920.6904937186034 456.14855736125503L920.6904937186034 456.14855736125503Q906.3176502436463 452.4848913774424 903.8376301930655 441.0711627355647L903.8376301930655 441.0711627355647Q900.963061498074 425.8246758336984 908.8822164323151 399.16446028995426Q916.8295534125857 372.53242679223956 930.9769405193081 358.9486806061035L930.9769405193081 358.9486806061035Q935.9369806204697 354.38318914935246 943.3206766801537 352.1568075130356Q950.7043727398375 349.9304258767187 958.9335301804012 353.396817538326Q967.162687620965 356.8632091999333 967.0499594368478 373.20879589694334Q966.9372312527304 389.5543825939535 952.7334800539492 404.0681362990573Q938.529728855168 418.5818900041611 918.0131993458174 425.8246758336984ZM920.4932193963982 412.63547829197296L920.4932193963982 412.63547829197296Q929.9905689082816 408.5772636637497 936.7824420013496 403.13812878008946Q943.5743150944177 397.6989938964292 947.9707142749928 389.8643851002761Q952.3952955015973 382.02977630412295 952.3952955015973 373.8006188635593Q952.3952955015973 365.59964346902495 947.6325297226408 365.59964346902495L947.6325297226408 365.59964346902495Q938.3042724869333 365.59964346902495 931.3433071176894 380.78976627883253Q924.354159702416 396.00807113466954 920.4932193963982 412.63547829197296ZM1076.0299314322583 421.1746382388593L1076.0299314322583 421.1746382388593L1068.110776498017 421.1746382388593L1060.9807188525974 449.41304836024574Q1059.7970729193653 453.8658116328795 1054.9215789562918 453.8658116328795L1054.9215789562918 453.8658116328795L1048.9751672441034 453.8658116328795Q1046.60787537764 453.8658116328795 1045.480593536467 452.03397864097315Q1044.3251296492645 450.2021456490669 1044.9169526158803 447.637579460398L1044.9169526158803 447.637579460398L1051.65246161689 421.1746382388593L1009.2666643887806 421.1746382388593Q1002.9257040321819 421.1746382388593 1001.5166017307156 416.0173238154923Q1000.1356814752785 410.86000939212533 1003.9966217812964 405.8154231528756L1003.9966217812964 405.8154231528756L1062.756187752445 318.5356266000475Q1064.8416591586151 315.85833222726137 1068.8998737868383 315.85833222726137L1068.8998737868383 315.85833222726137L1076.4244800766687 315.85833222726137Q1079.8063256001883 315.85833222726137 1080.3417844747455 318.1692600016662Q1080.8772433493027 320.50836982210046 1078.8199539891616 323.38293851709193L1078.8199539891616 323.38293851709193L1021.244033951245 407.39361773051803L1055.1188532784972 407.1963434083127L1062.164364785829 378.9579332869263Q1063.460738903178 374.5051700142925 1068.3080508202224 374.5051700142925L1068.3080508202224 374.5051700142925L1074.141734348293 374.5051700142925Q1076.6217543988741 374.5051700142925 1077.720854194018 376.33700300619876Q1078.8199539891616 378.1688359981051 1078.2281310225458 380.8461303708913L1078.2281310225458 380.8461303708913L1071.5771681596243 407.1963434083127L1079.017228311367 407.1963434083127Q1082.286345650769 407.1963434083127 1083.413627491942 408.1827150193392Q1084.5690913791445 409.16908663036565 1083.667265906206 411.6491066809465L1083.667265906206 411.6491066809465L1081.694522684153 417.99006703754526Q1080.6799690270973 421.1746382388593 1076.0299314322583 421.1746382388593ZM1168.6643167306588 377.7742873536945L1168.6643167306588 377.7742873536945Q1187.602651662367 349.53587723230805 1195.3808963664615 336.06485923028936Q1203.159141070556 322.59384122827066 1209.3028271049493 309.6019180087506L1209.3028271049493 309.6019180087506Q1210.6837473603864 306.5300749915539 1215.3337849552254 306.92462363596445L1215.3337849552254 306.92462363596445L1221.6747453118242 307.71372092478566Q1223.8729449021116 307.9109952469909 1224.8029524210797 309.85555642301455Q1225.7329599400473 311.80011759903823 1224.070219224317 315.0692349384402L1224.070219224317 315.0692349384402Q1200.763667158063 355.8768375889068 1171.5388854256498 394.82442520143775L1171.5388854256498 394.82442520143775L1157.6733187792206 449.41304836024574Q1156.489672845989 453.8658116328795 1151.6423609289445 453.8658116328795L1151.6423609289445 453.8658116328795L1145.7804953548443 453.8658116328795Q1143.3004753042637 453.8658116328795 1142.2295575551493 452.03397864097315Q1141.1304577600054 450.2021456490669 1141.7222807266212 447.637579460398L1141.7222807266212 447.637579460398L1155.897849879373 391.55530786203576Q1155.897849879373 378.1688359981051 1152.769642770118 353.50954572244325Q1149.6414356608625 328.8220734007522 1146.3723183214602 316.0556065494667L1146.3723183214602 316.0556065494667Q1145.1041262501408 312.476486703742 1146.4286824135188 309.91192051507323Q1147.7814206229268 307.319172280375 1150.8250815940942 307.1218979581697L1150.8250815940942 307.1218979581697L1156.489672845989 306.33280066934856Q1159.3642415409804 306.13552634714324 1160.547887474212 307.03735182008177Q1161.7315334074442 307.9109952469909 1162.4360845581773 311.18011258639297L1162.4360845581773 311.18011258639297Q1168.6643167306588 348.9440542656922 1168.6643167306588 377.7742873536945ZM1197.6918241408662 424.4437555782613L1197.6918241408662 424.4437555782613Q1198.5936496138047 397.3044452520187 1211.2755703270022 373.01152157473814Q1223.9574910401998 348.7467799434869 1243.572195076612 349.14132858789753L1243.572195076612 349.14132858789753Q1253.7740957392284 349.73315155451337 1259.4386869911236 359.3432292505141L1259.4386869911236 359.3432292505141Q1263.6941759415517 365.9941921134355 1262.9050786527305 381.83250198191774L1262.9050786527305 381.83250198191774Q1262.1159813639097 411.8463810031518 1246.4467637716034 437.4074967517521L1246.4467637716034 437.4074967517521Q1235.6530401423706 456.14855736125503 1217.4192563613956 455.4440062105218L1217.4192563613956 455.4440062105218Q1210.9655678206796 455.2467318883165 1205.4418867989316 449.80759700465626L1205.4418867989316 449.80759700465626Q1197.1000011742503 441.8884420704152 1197.6918241408662 424.4437555782613ZM1232.2711946188515 432.5601848347077L1232.2711946188515 432.5601848347077Q1246.0522151271925 410.86000939212533 1246.8413124160138 384.0025195261759L1246.8413124160138 384.0025195261759Q1247.0385867382192 372.1378781478289 1245.6013023907235 368.05148147357636Q1244.1640180432278 363.9932668453532 1239.5985265864765 363.9087207072653Q1235.0612171757548 363.7959925231479 1231.2848230078248 368.16420965769373Q1227.5366108859243 372.53242679223956 1223.9574910401998 380.2543074042753L1223.9574910401998 380.2543074042753Q1214.939236310815 398.29081686304517 1214.1501390219937 422.47101235620835L1214.1501390219937 422.47101235620835Q1213.7555903775833 440.6766140911541 1220.4910993785925 441.29661910379923L1220.4910993785925 441.29661910379923Q1226.3247829066631 441.49389342600455 1232.2711946188515 432.5601848347077ZM1306.3899756759834 448.03212810480863L1320.452816644618 400.6581087295086L1301.9372124033498 431.77108754588653Q1295.4835238626338 442.87481368144165 1288.8043789536828 448.3703126571605Q1282.1252340447322 453.8658116328795 1277.0524657594533 453.8658116328795L1277.0524657594533 453.8658116328795L1275.7842736881335 453.8658116328795Q1269.5278594696229 453.8658116328795 1265.9769216699274 446.98939240172353Q1262.3978018242028 440.08479112453824 1265.4696448413997 429.0937931731004L1265.4696448413997 429.0937931731004L1286.1834486729554 353.5940918605313Q1286.7752716395712 350.8322513496571 1289.33983782824 350.8322513496571L1289.33983782824 350.8322513496571L1299.9644691812969 350.8322513496571Q1303.0081301524642 350.8322513496571 1301.542663758939 355.6795632667015L1301.542663758939 355.6795632667015L1281.0261342495883 426.0219501559036Q1279.6452139941516 432.36291051250237 1280.6315856051779 434.13837941235L1280.6315856051779 434.13837941235Q1282.9143313335535 437.4074967517521 1290.8334862677943 425.43012718928776Q1298.7526412020356 413.4527576268234 1331.7538171023784 353.5940918605313L1331.7538171023784 353.5940918605313Q1333.4447398641382 350.8322513496571 1336.71385720354 350.8322513496571L1336.71385720354 350.8322513496571L1344.3511916774878 350.8322513496571Q1345.6193837488076 350.8322513496571 1346.408481037629 352.4104459272995Q1347.1975783264502 353.9886405049418 1346.6057553598343 356.07411191111214L1346.6057553598343 356.07411191111214L1322.0310112222605 448.6239510714245Q1321.0446396112338 453.8658116328795 1317.9727965940374 453.8658116328795L1317.9727965940374 453.8658116328795L1309.6590930153857 453.8658116328795Q1304.8117810983413 453.8658116328795 1306.3899756759834 448.03212810480863L1306.3899756759834 448.03212810480863Z " fill="#0ea5e9" transform="matrix(0.6496595288361497,0,0,0.6496595288361499,0,52.28652672452978)"/>
  </g>
</svg>
